<svg width="32" height="32" viewBox="0 0 32 32" fill="none" xmlns="http://www.w3.org/2000/svg">
<rect width="32" height="32" rx="4" fill="#0D0D0C"/>
<path d="M7.35964 5.45782C7.057 5.49096 6.75735 5.5241 6.46071 5.56627V15.8359C6.75735 15.7967 7.057 15.7606 7.35964 15.7274V5.45782Z" fill="white"/>
<path d="M9.63133 15.5738V5.29211C9.33169 5.30416 9.02905 5.31621 8.73241 5.3373V15.619C9.03205 15.6009 9.3287 15.5858 9.63133 15.5738Z" fill="white"/>
<path d="M11.9053 15.5587V5.26195C11.6746 5.25893 11.4408 5.25592 11.2041 5.25592C11.1382 5.25592 11.0723 5.25592 11.0064 5.25893V15.5466C11.309 15.5466 11.6086 15.5526 11.9053 15.5587Z" fill="white"/>
<path d="M14.177 15.6881V5.37035C13.8834 5.34625 13.5807 5.32817 13.2781 5.31311V15.6189C13.5807 15.6369 13.8804 15.661 14.177 15.6881Z" fill="white"/>
<path d="M16.4476 15.9684V5.62654C16.1539 5.58437 15.8543 5.5452 15.5486 5.50604V15.8359C15.8543 15.8751 16.1539 15.9202 16.4476 15.9684Z" fill="white"/>
<path d="M18.7224 16.4324V6.05738C18.4287 5.9881 18.1321 5.92483 17.8234 5.86157V16.2215C18.1291 16.2878 18.4287 16.3571 18.7224 16.4294V16.4324Z" fill="white"/>
<path d="M20.9933 17.1433V6.71704C20.7056 6.61461 20.406 6.5152 20.0943 6.42181V16.827C20.406 16.9264 20.7056 17.0318 20.9933 17.1433Z" fill="white"/>
<path d="M23.265 18.261V7.74141C22.9893 7.58175 22.6866 7.4251 22.366 7.27448V17.7459C22.6866 17.9086 22.9863 18.0803 23.265 18.258V18.261Z" fill="white"/>
<path d="M24.64 8.75049C25.1343 9.22936 25.4434 9.7262 25.5394 10.2231V20.5864C25.4555 20.1515 25.2083 19.7163 24.8167 19.2935L24.64 19.1128V8.75049Z" fill="white"/>
<g opacity="0.5">
<path d="M11.905 15.5467H11.006V26.7441C11.3087 26.7441 11.6083 26.7381 11.905 26.729V15.5436V15.5467Z" fill="url(#paint0_linear_2915_29842)"/>
<path d="M14.1766 15.5587H13.2777V26.6687C13.5803 26.6477 13.88 26.6266 14.1766 26.5995V15.5617V15.5587Z" fill="url(#paint1_linear_2915_29842)"/>
<path d="M16.4472 15.8331H15.5482V26.4461C15.8509 26.4069 16.1535 26.3617 16.4472 26.3166V15.8361V15.8331Z" fill="url(#paint2_linear_2915_29842)"/>
<path d="M18.7223 16.1069H17.8234V26.0632C18.129 25.9999 18.4286 25.9306 18.7223 25.8583V16.1069Z" fill="url(#paint3_linear_2915_29842)"/>
<path d="M20.9928 16.7125H20.0939V25.4759C20.4055 25.3795 20.7022 25.2771 20.9928 25.1716V16.7125Z" fill="url(#paint4_linear_2915_29842)"/>
<path d="M23.2646 17.6555H22.3656V24.5963C22.6862 24.4427 22.9859 24.283 23.2646 24.1173V17.6555Z" fill="url(#paint5_linear_2915_29842)"/>
<path d="M24.6395 19.1125C25.1322 19.5899 25.4409 20.085 25.538 20.5803V21.5198C25.4391 22.062 25.1309 22.5863 24.6395 23.0803V19.1125Z" fill="url(#paint6_linear_2915_29842)"/>
</g>
<defs>
<linearGradient id="paint0_linear_2915_29842" x1="11.4555" y1="14.293" x2="11.4555" y2="26.7441" gradientUnits="userSpaceOnUse">
<stop stop-color="white" stop-opacity="0"/>
<stop offset="0.65" stop-color="white"/>
</linearGradient>
<linearGradient id="paint1_linear_2915_29842" x1="13.7271" y1="14.3181" x2="13.7271" y2="26.6687" gradientUnits="userSpaceOnUse">
<stop stop-color="white" stop-opacity="0"/>
<stop offset="0.65" stop-color="white"/>
</linearGradient>
<linearGradient id="paint2_linear_2915_29842" x1="15.9977" y1="14.648" x2="15.9977" y2="26.4461" gradientUnits="userSpaceOnUse">
<stop stop-color="white" stop-opacity="0"/>
<stop offset="0.65" stop-color="white"/>
</linearGradient>
<linearGradient id="paint3_linear_2915_29842" x1="18.2728" y1="14.9952" x2="18.2728" y2="26.0632" gradientUnits="userSpaceOnUse">
<stop stop-color="white" stop-opacity="0"/>
<stop offset="0.65" stop-color="white"/>
</linearGradient>
<linearGradient id="paint4_linear_2915_29842" x1="20.5434" y1="15.734" x2="20.5434" y2="25.4759" gradientUnits="userSpaceOnUse">
<stop stop-color="white" stop-opacity="0"/>
<stop offset="0.65" stop-color="white"/>
</linearGradient>
<linearGradient id="paint5_linear_2915_29842" x1="22.8151" y1="16.8805" x2="22.8151" y2="24.5963" gradientUnits="userSpaceOnUse">
<stop stop-color="white" stop-opacity="0"/>
<stop offset="0.65" stop-color="white"/>
</linearGradient>
<linearGradient id="paint6_linear_2915_29842" x1="25.0887" y1="18.6695" x2="25.0887" y2="23.0803" gradientUnits="userSpaceOnUse">
<stop stop-color="white" stop-opacity="0"/>
<stop offset="0.65" stop-color="white"/>
</linearGradient>
</defs>
</svg>
