<svg width="36" height="39" viewBox="0 0 36 39" fill="none" xmlns="http://www.w3.org/2000/svg">
<path d="M18 34.75C25.663 34.75 31.875 28.538 31.875 20.875C31.875 13.212 25.663 7 18 7M18 34.75C10.337 34.75 4.125 28.538 4.125 20.875C4.125 13.212 10.337 7 18 7M18 34.75C14.4792 34.75 11.625 28.538 11.625 20.875C11.625 13.212 14.4792 7 18 7M18 34.75C21.5208 34.75 24.375 28.538 24.375 20.875C24.375 13.212 21.5208 7 18 7M31.5 20.875H4.5" stroke="#3C3663" stroke-width="2" stroke-linecap="square"/>
</svg>
