<svg width="29" height="32" viewBox="0 0 29 32" fill="none" xmlns="http://www.w3.org/2000/svg">
<path d="M1.33868 0.300617C0.887989 0.349965 0.441763 0.399313 0 0.46212V15.7555C0.441763 15.6972 0.887989 15.6434 1.33868 15.594V0.300617Z" fill="#1A1A19"/>
<path d="M4.72149 15.3652V0.0538673C4.27526 0.0718121 3.82458 0.0897568 3.38281 0.12116V15.4325C3.82904 15.4056 4.2708 15.3832 4.72149 15.3652Z" fill="#1A1A19"/>
<path d="M8.10772 15.3427V0.00897046C7.76413 0.00448428 7.41607 -1.90735e-06 7.06355 -1.90735e-06C6.96538 -1.90735e-06 6.86721 -1.90735e-06 6.76904 0.00448428V15.3248C7.21973 15.3248 7.66596 15.3338 8.10772 15.3427Z" fill="#1A1A19"/>
<path d="M11.4915 15.5356V0.170368C11.0542 0.134479 10.6035 0.107562 10.1528 0.0851307V15.4324C10.6035 15.4593 11.0497 15.4952 11.4915 15.5356Z" fill="#1A1A19"/>
<path d="M14.8724 15.9529V0.5518C14.4351 0.488993 13.9888 0.430673 13.5337 0.372353V15.7555C13.9888 15.8138 14.4351 15.8811 14.8724 15.9529Z" fill="#1A1A19"/>
<path d="M18.2601 16.6439V1.19346C17.8228 1.09027 17.381 0.996063 16.9214 0.901854V16.3298C17.3765 16.4285 17.8228 16.5317 18.2601 16.6394V16.6439Z" fill="#1A1A19"/>
<path d="M21.6414 17.7025V2.17581C21.213 2.02328 20.7668 1.87523 20.3027 1.73616V17.2314C20.7668 17.3795 21.213 17.5365 21.6414 17.7025Z" fill="#1A1A19"/>
<path d="M25.0252 19.367V3.70126C24.6147 3.4635 24.164 3.23021 23.6865 3.00591V18.5999C24.164 18.8421 24.6102 19.0978 25.0252 19.3625V19.367Z" fill="#1A1A19"/>
<path d="M27.0703 5.20409C27.8065 5.91726 28.2663 6.65736 28.4092 7.39745V22.8301C28.2842 22.1824 27.9172 21.5339 27.334 20.9043L27.0703 20.6357V5.20409Z" fill="#1A1A19"/>
<g opacity="0.5">
<path d="M8.10821 15.3249H6.76953V32C7.22022 32 7.66644 31.991 8.10821 31.9776V15.3204V15.3249Z" fill="url(#paint0_linear_2544_100432)"/>
<path d="M11.491 15.3427H10.1523V31.8877C10.603 31.8563 11.0493 31.8249 11.491 31.7846V15.3472V15.3427Z" fill="url(#paint1_linear_2544_100432)"/>
<path d="M14.8724 15.7513H13.5337V31.5562C13.9844 31.4978 14.4351 31.4306 14.8724 31.3633V15.7558V15.7513Z" fill="url(#paint2_linear_2544_100432)"/>
<path d="M18.2601 16.1591H16.9214V30.986C17.3765 30.8918 17.8228 30.7886 18.2601 30.6809V16.1591Z" fill="url(#paint3_linear_2544_100432)"/>
<path d="M21.6419 17.061H20.3032V30.1113C20.7673 29.9678 21.2091 29.8152 21.6419 29.6582V17.061Z" fill="url(#paint4_linear_2544_100432)"/>
<path d="M25.0252 18.4653H23.6865V28.8014C24.164 28.5727 24.6102 28.3349 25.0252 28.0881V18.4653Z" fill="url(#paint5_linear_2544_100432)"/>
<path d="M27.334 20.9037C27.917 21.5332 28.2842 22.181 28.4092 22.8285V24.2201C28.2619 25.0276 27.8021 25.8086 27.0703 26.5443V20.6351L27.334 20.9037Z" fill="url(#paint6_linear_2544_100432)"/>
</g>
<defs>
<linearGradient id="paint0_linear_2544_100432" x1="7.43887" y1="13.4579" x2="7.43887" y2="32" gradientUnits="userSpaceOnUse">
<stop stop-opacity="0"/>
<stop offset="0.65"/>
</linearGradient>
<linearGradient id="paint1_linear_2544_100432" x1="10.8217" y1="13.4953" x2="10.8217" y2="31.8877" gradientUnits="userSpaceOnUse">
<stop stop-opacity="0"/>
<stop offset="0.65"/>
</linearGradient>
<linearGradient id="paint2_linear_2544_100432" x1="14.203" y1="13.9866" x2="14.203" y2="31.5562" gradientUnits="userSpaceOnUse">
<stop stop-opacity="0"/>
<stop offset="0.65"/>
</linearGradient>
<linearGradient id="paint3_linear_2544_100432" x1="17.5907" y1="14.5036" x2="17.5907" y2="30.986" gradientUnits="userSpaceOnUse">
<stop stop-opacity="0"/>
<stop offset="0.65"/>
</linearGradient>
<linearGradient id="paint4_linear_2544_100432" x1="20.9726" y1="15.6038" x2="20.9726" y2="30.1113" gradientUnits="userSpaceOnUse">
<stop stop-opacity="0"/>
<stop offset="0.65"/>
</linearGradient>
<linearGradient id="paint5_linear_2544_100432" x1="24.3559" y1="17.3112" x2="24.3559" y2="28.8014" gradientUnits="userSpaceOnUse">
<stop stop-opacity="0"/>
<stop offset="0.65"/>
</linearGradient>
<linearGradient id="paint6_linear_2544_100432" x1="27.7397" y1="19.9754" x2="27.7397" y2="26.5441" gradientUnits="userSpaceOnUse">
<stop stop-opacity="0"/>
<stop offset="0.65"/>
</linearGradient>
</defs>
</svg>
